<svg id="Layer_1" enable-background="new 0 0 512 512" height="512" viewBox="0 0 512 512" width="512" xmlns="http://www.w3.org/2000/svg"><g id="XMLID_1432_"><path id="XMLID_1893_" d="m196 31v30l30 7 30-7 8.333-15-8.333-15-30-7.333z" fill="#4f4540"/><path id="XMLID_1892_" d="m315.979 31-29.99-5-29.989 5v30l29.989 7 29.99-7c0-10.492 0-19.508 0-30z" fill="#403b40"/><path id="XMLID_1521_" d="m166 301-45-14-45 14v45l45 12.333 45-12.333c0-14.981 0-30.019 0-45z" fill="#eceae7"/><path id="XMLID_1888_" d="m69.5 61c-38.321 0-69.5 31.177-69.5 69.5v101c0 38.321 31.177 69.5 69.5 69.5h186.5l19-120-19-120c-10.363 0-176.137 0-186.5 0z" fill="#ff7038"/><path id="XMLID_1886_" d="m512 231.5c0-27.463 0-84.97 0-101 0-38.321-31.177-69.5-69.5-69.5-10.363 0-176.137 0-186.5 0v240h186.5c38.321 0 69.5-31.177 69.5-69.5z" fill="#ff4a4a"/><path id="XMLID_1885_" d="m166 1v30h90l8.333-15-8.333-15c-10.889 0-79.039 0-90 0z" fill="#694d33"/><path id="XMLID_1884_" d="m346 1c-10.889 0-79.039 0-90 0v30h90c0-10.492 0-19.508 0-30z" fill="#4f4540"/><path id="XMLID_1922_" d="m211 188.5c0 20.71-16.789 37.5-37.5 37.5s-37.5-16.789-37.5-37.5c0-20.708 37.409-49.9 37.5-50 0 0 12.546 9.799 23.124 22.068 7.71 8.944 14.376 19.201 14.376 27.932z" fill="#ffec29"/><path id="XMLID_1870_" d="m421 121v30c-7.667 0-52.709 0-60 0 0-10.285 0-19.715 0-30-10.59 0-19.702 0-30 0v225l15 9.167 15-9.167c0-9.821 0-35.179 0-45h60v45l15 9.167 15-9.167c0-69.844 0-155.01 0-225-6.391 0-23.638 0-30 0zm0 150c-20.57 0-39.43 0-60 0 0-10.285 0-19.715 0-30h60zm0-60c-27.211 0-42.532 0-60 0 0-10.589 0-19.702 0-30h60z" fill="#4f4540"/><path id="XMLID_1891_" d="m0 346v105.003h256l19-52.501-19-52.502c-7.221 0-248.779 0-256 0z" fill="#e7dfdd"/><path id="XMLID_1890_" d="m512 451.003c0-28.278 0-88.53 0-105.003-7.221 0-248.779 0-256 0v105.003z" fill="#d5d5d5"/><circle id="XMLID_1819_" cx="126" cy="466" fill="#694d33" r="45"/><circle id="XMLID_1889_" cx="386" cy="466" fill="#4f4540" r="45"/></g></svg>