<?xml version="1.0" encoding="utf-8"?>
<!-- Generator: Adobe Illustrator 23.0.1, SVG Export Plug-In . SVG Version: 6.00 Build 0)  -->
<svg version="1.1" id="Layer_1" xmlns="http://www.w3.org/2000/svg" xmlns:xlink="http://www.w3.org/1999/xlink" x="0px" y="0px"
	 viewBox="0 0 768 768" style="enable-background:new 0 0 768 768;" xml:space="preserve">
<style type="text/css">
	.st0{fill:#35556D;}
	.st1{fill-rule:evenodd;clip-rule:evenodd;fill:#FFD772;}
	.st2{fill-rule:evenodd;clip-rule:evenodd;fill:#A1D4FF;}
	.st3{fill:#FFD772;}
	.st4{fill-rule:evenodd;clip-rule:evenodd;fill:#375E7D;}
	.st5{fill-rule:evenodd;clip-rule:evenodd;fill:#75CEF8;}
	.st6{fill:#22A6FE;}
	.st7{fill-rule:evenodd;clip-rule:evenodd;fill:#F9F7F8;}
	.st8{fill-rule:evenodd;clip-rule:evenodd;fill:#E5E4EC;}
	.st9{fill-rule:evenodd;clip-rule:evenodd;fill:#2B4D66;}
	.st10{fill-rule:evenodd;clip-rule:evenodd;fill:#FBBA58;}
</style>
<circle class="st0" cx="384" cy="384" r="384"/>
<path class="st1" d="M443.9,254.3c0-32.8-26.6-59.4-59.4-59.4S325,221.5,325,254.3c0,14.1,4.9,27,13.1,37.2l46.3,23.3l46.3-23.3
	C439,281.3,443.9,268.4,443.9,254.3z"/>
<path class="st2" d="M607.8,455.5H161.2l8.6-47.6l2.5-14.1l7.3-40.6l2.5-14.1l6.3-34.9c1.5-6.8,7.6-12.6,15.4-12.7l84.1,0H302
	l75.4,0h14.1l173.7,0c7.8,0.1,13.9,5.9,15.4,12.7l6.3,34.9l2.5,14.1l7.3,40.6l2.5,14.1L607.8,455.5z"/>
<path class="st3" d="M499.8,261.3h-25.2c-3.9,0-7-3.1-7-7c0-3.9,3.1-7,7-7h25.2c3.9,0,7,3.1,7,7
	C506.8,258.2,503.6,261.3,499.8,261.3z M294.4,261.3h-25.2c-3.9,0-7-3.1-7-7c0-3.9,3.1-7,7-7h25.2c3.9,0,7,3.1,7,7
	C301.5,258.2,298.3,261.3,294.4,261.3z"/>
<path class="st3" d="M448.2,197.7c-1.8,0-3.6-0.7-5-2.1c-2.7-2.7-2.8-7.2,0-9.9l17.8-17.8c2.7-2.7,7.2-2.8,9.9,0
	c2.7,2.7,2.8,7.2,0,9.9l-17.8,17.8C451.8,197,450,197.7,448.2,197.7z"/>
<path class="st3" d="M320.8,197.7c-1.8,0-3.6-0.7-5-2.1L298,177.8c-2.7-2.7-2.7-7.2,0-9.9c2.7-2.7,7.2-2.7,9.9,0l17.8,17.8
	c2.7,2.7,2.7,7.2,0,9.9C324.4,197,322.6,197.7,320.8,197.7z"/>
<path class="st3" d="M384.5,171.3c-3.9,0-7-3.1-7-7V139c0-3.9,3.1-7,7-7c3.9,0,7,3.1,7,7v25.2C391.5,168.1,388.4,171.3,384.5,171.3z
	"/>
<path class="st4" d="M408.5,494.2l-24.2-13.7l-23.9,13.7l0,38.9l24.4,11.2l23.7-11.2V494.2z"/>
<path class="st5" d="M607.8,455.5H425.2c9.4-14.5,16.3-30.5,20.3-47.6c0.5-2.3,1-4.7,1.4-7c0.4-2.3,0.8-4.7,1.1-7
	c0.8-6.1,1.2-12.2,1.2-18.5c0-7.5-0.6-14.9-1.7-22.1c-0.4-2.4-0.8-4.7-1.2-7c-0.5-2.4-1-4.7-1.6-7c-4.4-17.2-11.9-33.2-21.8-47.6h8
	l36,0H481l84.2,0c7.8,0.1,13.8,5.9,15.4,12.7l6.3,34.9l2.5,14.1l7.3,40.6l2.5,14.1L607.8,455.5z"/>
<path class="st6" d="M503.4,455.5l-6.5-47.6h102.3l-2.5-14.1H495l-5.5-40.6h100l-2.5-14.1h-99.4l-6.5-47.6h-14.2l6.5,47.6h-81.8
	v-47.6h-14.1v47.6h-82l6.6-47.6h-14.2l-6.6,47.6h-99.1l-2.5,14.1h99.7l-5.6,40.6H172.3l-2.5,14.1h101.9l-6.6,47.6l-1.2,8.6
	c-0.5,3.8,2.2,7.4,6,7.9c0.3,0,0.7,0.1,1,0.1c3.5,0,6.5-2.5,7-6.1l1.5-10.6l6.6-47.6h91.6v56.4c0,4.3,3.2,7.8,7,7.8
	c3.9,0,7-3.5,7-7.8v-56.4h91.2l6.5,47.6l2.6,19c0.5,3.5,3.5,6.1,7,6.1c0.3,0,0.6,0,1-0.1c3.8-0.5,6.5-4.1,6-7.9L503.4,455.5z
	 M377.4,393.8h-89.6l5.6-40.6h84L377.4,393.8L377.4,393.8z M391.5,393.8v-40.6h83.7l5.5,40.6H391.5z"/>
<path class="st7" d="M384.5,455.5H161.2l-2.9,18.3c-1.9,11.8,6.2,20.1,18.2,20.1h416.1c11.9,0,20-8.3,18.2-20.1l-2.9-18.3H425.3
	H384.5z"/>
<path class="st8" d="M610.7,473.8l-2.9-18.3h-74.6l2.9,18.3c1.9,11.8-6.2,20.1-18.2,20.1h74.6C604.4,493.9,612.6,485.6,610.7,473.8z
	"/>
<path class="st9" d="M408.5,533.1v-38.9l-20.7,0.1l-2.2,0v38.9h20.5H408.5z"/>
<path class="st10" d="M443.9,254.3c0-32.8-26.6-59.4-59.4-59.4c-14.4,0-27.6,5.1-37.9,13.6c32,1,57.6,27.2,57.6,59.4
	c0,8.4-1.8,16.4-4.9,23.7h23.5h8C439,281.3,443.9,268.4,443.9,254.3z"/>
<path class="st7" d="M408.5,533.1h-48.1h-20.5c-9.2,0-16.7,7.5-16.7,16.7v17.9l63.3,13.4l59.2-13.4v-17.9c0-9.2-7.5-16.7-16.7-16.7
	H408.5z"/>
<path class="st8" d="M445.7,549.8c0-9.2-7.5-16.7-16.7-16.7h-20.5h-2.4c9.2,0,16.7,7.5,16.7,16.7v17.9h19.7h3.2L445.7,549.8
	L445.7,549.8z"/>
<path class="st4" d="M445.7,567.7H323.2h-19.7c-9.9,0-18.1,8.1-18.1,18.1v15.4c0,2.2,1.8,4,4,4h190.1c2.2,0,4-1.8,4-4v-15.4
	c0-9.9-8.1-18.1-18.1-18.1H445.7z"/>
<path class="st9" d="M483.5,585.7c0-9.9-8.1-18.1-18.1-18.1h-19.7h-3.2c9.9,0,18.1,8.1,18.1,18.1v15.4c0,2.2-1.8,4-4,4h22.9
	c2.2,0,4-1.8,4-4L483.5,585.7L483.5,585.7z"/>
</svg>
